<svg width="21" height="21" viewBox="0 0 21 21" fill="none" xmlns="http://www.w3.org/2000/svg">
<path d="M10.5522 5.41978C7.78543 5.41978 5.55376 7.65031 5.55376 10.4156C5.55376 13.181 7.78543 15.4115 10.5522 15.4115C13.3189 15.4115 15.5506 13.181 15.5506 10.4156C15.5506 7.65031 13.3189 5.41978 10.5522 5.41978ZM10.5522 13.6636C8.76424 13.6636 7.30256 12.207 7.30256 10.4156C7.30256 8.62426 8.75989 7.16768 10.5522 7.16768C12.3445 7.16768 13.8018 8.62426 13.8018 10.4156C13.8018 12.207 12.3401 13.6636 10.5522 13.6636ZM16.9209 5.21543C16.9209 5.86328 16.3989 6.38069 15.7551 6.38069C15.1069 6.38069 14.5892 5.85893 14.5892 5.21543C14.5892 4.57192 15.1112 4.05016 15.7551 4.05016C16.3989 4.05016 16.9209 4.57192 16.9209 5.21543ZM20.2314 6.39809C20.1575 4.83715 19.8008 3.45449 18.6567 2.31531C17.5169 1.17613 16.1335 0.819597 14.5718 0.741333C12.9622 0.650025 8.1378 0.650025 6.52822 0.741333C4.97083 0.815249 3.58746 1.17178 2.44335 2.31096C1.29924 3.45014 0.946869 4.8328 0.868565 6.39374C0.77721 8.0025 0.77721 12.8244 0.868565 14.4332C0.942519 15.9941 1.29924 17.3768 2.44335 18.516C3.58746 19.6551 4.96648 20.0117 6.52822 20.0899C8.1378 20.1813 12.9622 20.1813 14.5718 20.0899C16.1335 20.016 17.5169 19.6595 18.6567 18.516C19.7964 17.3768 20.1531 15.9941 20.2314 14.4332C20.3228 12.8244 20.3228 8.00685 20.2314 6.39809ZM18.152 16.1594C17.8127 17.0116 17.1558 17.6681 16.2988 18.0116C15.0155 18.5203 11.9704 18.4029 10.5522 18.4029C9.13401 18.4029 6.08449 18.516 4.80552 18.0116C3.95288 17.6725 3.29599 17.0159 2.95233 16.1594C2.44335 14.8767 2.56081 11.8331 2.56081 10.4156C2.56081 8.99819 2.4477 5.95024 2.95233 4.67193C3.29164 3.81972 3.94853 3.16317 4.80552 2.81968C6.08884 2.31096 9.13401 2.42836 10.5522 2.42836C11.9704 2.42836 15.0199 2.31531 16.2988 2.81968C17.1515 3.15882 17.8084 3.81537 18.152 4.67193C18.661 5.95459 18.5436 8.99819 18.5436 10.4156C18.5436 11.8331 18.661 14.881 18.152 16.1594Z" fill="white"/>
</svg>
