<svg width="20" height="21" viewBox="0 0 20 21" fill="none" xmlns="http://www.w3.org/2000/svg">
<path d="M4.59239 20.0216H0.551898V7.01671H4.59239V20.0216ZM2.56997 5.24273C1.27795 5.24273 0.22998 4.17312 0.22998 2.88176C0.22998 2.26147 0.476514 1.66659 0.915348 1.22798C1.35418 0.789376 1.94937 0.542969 2.56997 0.542969C3.19057 0.542969 3.78576 0.789376 4.22459 1.22798C4.66343 1.66659 4.90996 2.26147 4.90996 2.88176C4.90996 4.17312 3.86155 5.24273 2.56997 5.24273ZM19.7147 20.0216H15.6829V13.6909C15.6829 12.1821 15.6524 10.2473 13.5821 10.2473C11.4814 10.2473 11.1595 11.8865 11.1595 13.5822V20.0216H7.12336V7.01671H10.9985V8.7907H11.0551C11.5945 7.76892 12.9122 6.69061 14.8781 6.69061C18.9673 6.69061 19.719 9.38202 19.719 12.8778V20.0216H19.7147Z" fill="white"/>
</svg>
