<svg width="113" height="32" viewBox="0 0 113 32" fill="none" xmlns="http://www.w3.org/2000/svg">
<path d="M23.2985 24.1855V31.8781H0.153809V0.0534399H9.46323V24.1855H23.2985Z" fill="white"/>
<path d="M47.6878 0.0534399L35.9608 18.6278V31.8781H26.6035V18.6462L14.2542 0.0534399H25.0753L31.8824 10.5488L38.395 0.0534399H47.6878Z" fill="white"/>
<path d="M77.2162 0.0534399V31.8781H69.0907L57.3821 14.3858V31.8781H49.5236V0.0534399H58.4371L69.4534 16.4985V0.0534399H77.2162Z" fill="white"/>
<path d="M112.211 31.8781H102.528L101.482 30.4776L90.0626 15.2342H99.8398L101.3 17.1979C101.378 16.7915 101.417 16.3786 101.416 15.9648C101.415 14.693 101.044 13.449 100.348 12.3839C99.6528 11.3189 98.6627 10.4788 97.4983 9.96586C96.3339 9.45287 95.0455 9.2891 93.7898 9.49445C92.534 9.69981 91.365 10.2654 90.4249 11.1226C89.4848 11.9797 88.8142 13.0914 88.4945 14.3224C88.1749 15.5534 88.22 16.8507 88.6244 18.0566C89.0288 19.2625 89.7751 20.3249 90.7725 21.1147C91.7698 21.9045 92.9753 22.3876 94.2423 22.5053L95.6398 24.4745V24.4837L100.462 30.9009C96.8571 32.2374 92.8904 32.2279 89.2918 30.8741C85.6933 29.5204 82.7048 26.9133 80.8762 23.5326C79.0477 20.1519 78.502 16.225 79.3395 12.4742C80.1771 8.72341 82.3416 5.40105 85.4349 3.1183C88.5281 0.835562 92.342 -0.254017 96.175 0.0500068C100.008 0.35403 103.602 2.03121 106.297 4.773C108.991 7.5148 110.604 11.1368 110.839 14.9727C111.074 18.8086 109.916 22.6003 107.577 25.6504L112.211 31.8781Z" fill="white"/>
</svg>
