<svg width="250" height="106" viewBox="0 0 250 106" fill="none" xmlns="http://www.w3.org/2000/svg">
<circle cx="53" cy="53" r="53" fill="#5A27E7"/>
<path d="M59.2369 53.9369C59.7543 53.4195 59.7543 52.5805 59.2369 52.0631L50.8046 43.6308C50.2872 43.1134 49.4483 43.1134 48.9308 43.6308C48.4134 44.1483 48.4134 44.9872 48.9308 45.5047L56.4261 53L48.9308 60.4953C48.4134 61.0128 48.4134 61.8517 48.9308 62.3692C49.4483 62.8866 50.2872 62.8866 50.8046 62.3692L59.2369 53.9369ZM56.975 54.325L58.3 54.325L58.3 51.675L56.975 51.675L56.975 54.325Z" fill="white"/>
<path d="M80.639 48.066V50.395H77.477V60H74.57V50.395H71.408V48.066H80.639ZM91.5839 60L89.1019 55.495H88.4049V60H85.4979V48.066H90.3769C91.3176 48.066 92.1166 48.2303 92.7739 48.559C93.4426 48.8877 93.9413 49.341 94.2699 49.919C94.5986 50.4857 94.7629 51.1203 94.7629 51.823C94.7629 52.6163 94.5363 53.3247 94.0829 53.948C93.6409 54.5713 92.9836 55.0133 92.1109 55.274L94.8649 60H91.5839ZM88.4049 53.438H90.2069C90.7396 53.438 91.1363 53.3077 91.3969 53.047C91.6689 52.7863 91.8049 52.418 91.8049 51.942C91.8049 51.4887 91.6689 51.1317 91.3969 50.871C91.1363 50.6103 90.7396 50.48 90.2069 50.48H88.4049V53.438ZM110.222 48.066L106.091 56.056V60H103.184V56.056L99.0528 48.066H102.351L104.663 53.064L106.958 48.066H110.222ZM124.703 48.066V60H121.796V48.066H124.703ZM138.794 48.066V50.395H135.632V60H132.725V50.395H129.563V48.066H138.794ZM146.781 57.314L144.894 62.193H143.041L144.027 57.314H146.781ZM161.844 48.066V60H158.937V48.066H161.844ZM175.935 48.066V50.395H172.773V60H169.866V50.395H166.704V48.066H175.935ZM185.112 60.119C184.24 60.119 183.458 59.9773 182.766 59.694C182.075 59.4107 181.52 58.9913 181.1 58.436C180.692 57.8807 180.477 57.212 180.454 56.43H183.548C183.594 56.872 183.747 57.212 184.007 57.45C184.268 57.6767 184.608 57.79 185.027 57.79C185.458 57.79 185.798 57.6937 186.047 57.501C186.297 57.297 186.421 57.0193 186.421 56.668C186.421 56.3733 186.319 56.1297 186.115 55.937C185.923 55.7443 185.679 55.5857 185.384 55.461C185.101 55.3363 184.693 55.1947 184.16 55.036C183.39 54.798 182.761 54.56 182.273 54.322C181.786 54.084 181.367 53.7327 181.015 53.268C180.664 52.8033 180.488 52.197 180.488 51.449C180.488 50.3383 180.891 49.4713 181.695 48.848C182.5 48.2133 183.548 47.896 184.84 47.896C186.155 47.896 187.215 48.2133 188.019 48.848C188.824 49.4713 189.255 50.344 189.311 51.466H186.166C186.144 51.0807 186.002 50.7803 185.741 50.565C185.481 50.3383 185.146 50.225 184.738 50.225C184.387 50.225 184.104 50.3213 183.888 50.514C183.673 50.6953 183.565 50.9617 183.565 51.313C183.565 51.6983 183.747 51.9987 184.109 52.214C184.472 52.4293 185.039 52.6617 185.809 52.911C186.58 53.1717 187.203 53.421 187.679 53.659C188.167 53.897 188.586 54.2427 188.937 54.696C189.289 55.1493 189.464 55.733 189.464 56.447C189.464 57.127 189.289 57.7447 188.937 58.3C188.597 58.8553 188.099 59.2973 187.441 59.626C186.784 59.9547 186.008 60.119 185.112 60.119ZM209.425 48.066V50.395H204.563V52.911H208.201V55.172H204.563V60H201.656V48.066H209.425ZM220.439 60L217.957 55.495H217.26V60H214.353V48.066H219.232C220.172 48.066 220.971 48.2303 221.629 48.559C222.297 48.8877 222.796 49.341 223.125 49.919C223.453 50.4857 223.618 51.1203 223.618 51.823C223.618 52.6163 223.391 53.3247 222.938 53.948C222.496 54.5713 221.838 55.0133 220.966 55.274L223.72 60H220.439ZM217.26 53.438H219.062C219.594 53.438 219.991 53.3077 220.252 53.047C220.524 52.7863 220.66 52.418 220.66 51.942C220.66 51.4887 220.524 51.1317 220.252 50.871C219.991 50.6103 219.594 50.48 219.062 50.48H217.26V53.438ZM231.749 50.395V52.809H235.642V55.053H231.749V57.671H236.152V60H228.842V48.066H236.152V50.395H231.749ZM244.347 50.395V52.809H248.24V55.053H244.347V57.671H248.75V60H241.44V48.066H248.75V50.395H244.347Z" fill="white"/>
</svg>
