<svg width="456" height="693" viewBox="0 0 456 693" fill="none" xmlns="http://www.w3.org/2000/svg">
<path d="M102.167 689.31H101.87C100.144 689.31 98.764 687.888 98.7979 686.169L103.453 484.374L117.165 482.774L105.468 686.178C105.375 687.938 103.927 689.31 102.167 689.31Z" fill="#757575"/>
<path d="M22.2475 689.31H21.9512C20.2245 689.31 18.8449 687.888 18.8787 686.169L23.534 484.374L37.2461 482.774L25.5485 686.178C25.4554 687.938 24.008 689.31 22.2475 689.31Z" fill="#757575"/>
<path d="M242.774 689.31H243.07C244.797 689.31 246.177 687.888 246.143 686.169L241.488 484.374L227.776 482.774L239.473 686.178C239.566 687.938 241.014 689.31 242.774 689.31Z" fill="#757575"/>
<path d="M13.1569 471.864V333.584C13.1569 309.249 32.8785 289.528 57.2131 289.528H156.837C181.172 289.528 200.893 309.249 200.893 333.584V477.145L13.1569 471.864Z" fill="#757575"/>
<path d="M218.744 493.693H26.3864C19.0818 493.693 13.1569 487.768 13.1569 480.463V471.864H218.744V493.693Z" fill="#757575"/>
<path d="M241.801 493.693H96.2754C90.8752 493.693 86.4907 489.317 86.4907 483.909V481.64C86.4907 476.24 90.8668 471.855 96.2754 471.855H241.801C247.201 471.855 251.585 476.231 251.585 481.64V483.909C251.577 489.317 247.201 493.693 241.801 493.693Z" fill="#757575"/>
<path d="M236.147 437.406C221.876 462.249 203.923 471.839 203.923 471.839H129.244C129.244 471.839 247.032 418.463 236.147 437.406Z" fill="#271B44"/>
<path d="M178.793 629.604C176.846 631.838 176.601 634.327 177.566 636.985C177.566 636.993 177.574 637.01 177.583 637.019C179.36 641.936 185.251 647.438 192.082 652.923C192.954 653.625 193.733 654.269 194.41 654.861C194.587 655.013 194.765 655.174 194.934 655.327C195.07 655.445 195.205 655.572 195.332 655.691C201.706 661.565 199.311 662.911 210.763 674.837C223.823 688.422 232.812 688.667 235.368 687.431C237.535 686.373 233.133 679.17 228.267 671.07C228.03 670.681 227.801 670.283 227.556 669.885C226.904 668.81 226.261 667.718 225.617 666.635C219.912 656.884 221.377 652.313 222.731 637.806C223.831 626.015 241.073 571.954 241.073 571.954L216.053 567.646C216.053 567.646 208.52 610.695 200.216 617.331C195.772 620.86 190.804 620.911 186.538 623.527C186.233 623.704 185.937 623.899 185.649 624.085C183.212 625.71 180.74 627.369 178.793 629.604Z" fill="#FFB27D"/>
<path d="M178.793 629.603C176.846 631.838 176.601 634.326 177.566 636.984C177.566 636.992 177.574 637.009 177.583 637.018C179.767 641.936 185.497 647.403 192.107 652.871C192.971 653.591 193.733 654.251 194.41 654.86C194.587 655.013 194.765 655.174 194.934 655.326C195.07 655.444 195.205 655.571 195.332 655.69C201.706 661.564 199.311 662.91 210.763 674.836C223.823 688.421 232.812 688.666 235.368 687.431C237.535 686.373 233.133 679.17 228.267 671.069C225.727 670.138 213.92 665.339 204.99 653.921C197.127 643.891 191.887 631 186.53 623.526C186.225 623.704 185.929 623.898 185.641 624.085C183.212 625.71 180.74 627.369 178.793 629.603Z" fill="#271B44"/>
<path d="M380.555 613.97C382.104 621.698 393.107 620.403 405.414 617.398C417.713 614.393 414.793 617.965 432.297 616.027C449.801 614.089 455.108 607.563 455.641 604.956C456.115 602.645 447.473 601.832 438.188 600.766C437.02 600.639 435.851 600.487 434.675 600.343C424.196 599.031 416.528 592.268 407.014 586.715C398 581.459 384.55 560.036 384.55 560.036L360.545 561.941C360.545 561.941 373.14 581.078 378.016 589.399C380.885 594.291 380.732 600.766 380.368 605.76C380.191 608.477 380.013 611.253 380.555 613.97Z" fill="#FFB27D"/>
<path d="M405.414 617.398C417.713 614.394 414.793 617.965 432.297 616.027C449.801 614.089 455.108 607.563 455.641 604.956C456.115 602.645 447.473 601.833 438.188 600.766L438.103 600.944C438.103 600.944 427.607 608.384 413.032 608.739C401.157 609.027 388.579 605.625 380.377 605.76C380.191 608.477 380.013 611.253 380.563 613.97C382.104 621.698 393.116 620.412 405.414 617.398Z" fill="#271B44"/>
<path d="M288.549 460.454L266.102 520.847L236.798 599.699C236.798 599.699 228.851 600.469 221.233 598.277C214.224 596.254 206.175 590.947 206.175 590.947C206.175 590.947 214.309 506.28 229.485 457.678C233.379 445.202 237.738 435.113 242.546 429.433C266.085 401.628 288.549 460.454 288.549 460.454Z" fill="#271B44"/>
<path d="M265.729 364.546C251.027 359.806 209.087 365.892 166.96 374.136L158.141 359.586L67.1503 352.476C67.1503 352.476 37.1277 419.064 53.5652 461.487C55.9775 467.725 60.7852 471.72 68.9617 471.856H70.2905C70.2905 471.856 124.445 471.822 142.033 471.822C187.283 471.822 237.797 440.716 244.34 439.412C255.039 437.271 259.313 458.668 270.012 481.124C280.711 503.588 370.559 580.604 370.559 580.604C370.559 580.604 384.364 580.739 390.069 578.598C396.205 576.296 398.448 573.308 398.448 573.308C398.448 573.308 298.892 375.245 265.729 364.546Z" fill="#2E234B"/>
<path d="M154.569 94.6394C142.913 88.5198 125.172 87.6903 122.295 87.3009C87.8113 82.671 67.0655 132.771 65.8382 147.955C63.5867 175.938 48.7828 180.204 27.9523 197.734C-13.827 232.869 -1.57077 273.7 21.2657 288.876C34.9693 297.975 59.1346 288.876 59.1346 288.876C59.4731 289.113 125.206 252.133 157.607 234.29C206.183 227.375 184.27 110.239 154.569 94.6394Z" fill="#5A27E7"/>
<path d="M130.454 219.097C130.598 219.19 114.516 224.683 103.758 219.918C93.6432 215.449 85.9746 198.8 86.127 198.791C90.7315 198.58 95.7846 194.559 99.6781 168.151L101.642 168.853L134.593 180.712C134.593 180.712 132.206 191.284 130.657 201.356C129.354 209.803 128.651 217.904 130.454 219.097Z" fill="#FFB27D"/>
<path d="M134.585 180.712C134.585 180.712 132.198 191.284 130.649 201.356C111.723 197.945 104.291 179.087 101.625 168.854L134.585 180.712Z" fill="#ED975D"/>
<path d="M139.494 191.208C139.494 191.208 94.405 185.156 98.6033 157.14C102.802 129.123 99.8136 109.469 128.778 112.144C157.743 114.827 161.721 126.355 162.593 136.047C163.465 145.73 151.327 192.054 139.494 191.208Z" fill="#FFB27D"/>
<path d="M160.951 120.684C160.951 120.684 132.088 145.56 112.459 147.558C92.8307 149.564 85.3906 143.258 85.3906 143.258C85.3906 143.258 96.9612 133.651 103.927 118.144C105.976 113.574 110.318 110.442 115.312 110.01C129.328 108.8 155.897 108.25 160.951 120.684Z" fill="#5A27E7"/>
<path d="M142.913 118.449C142.913 118.449 152.571 127.785 155.61 134.709C158.547 141.387 159.427 157.376 157.091 163.724C157.091 163.724 172.132 134.472 163.617 120.261C154.577 105.186 142.913 118.449 142.913 118.449Z" fill="#5A27E7"/>
<path d="M168.416 285.516C167.053 376.786 168.044 357.716 158.056 366.375C155.652 368.457 148.889 369.702 139.985 370.294C112.002 372.148 62.7996 367.543 60.9291 362.371C54.4709 344.478 59.033 338.917 53.6497 311.519C53.0911 308.607 52.3971 305.45 51.5761 302.013C47.0816 283.197 42.714 276.79 58.6437 246.564C73.0921 219.182 88.0991 196.955 89.4534 197.759C127.568 220.384 130.64 201.365 130.64 201.365C130.64 201.365 169.085 240.995 168.416 285.516Z" fill="white"/>
<path d="M266.11 520.847L236.807 599.699C236.807 599.699 228.859 600.47 221.241 598.277C214.233 596.254 206.183 590.947 206.183 590.947C206.183 590.947 214.317 506.28 229.494 457.678L266.11 520.847Z" fill="#2E234B"/>
<path d="M130.649 201.348C130.649 201.348 169.872 208.001 174.476 224.887C179.081 241.773 206.183 341.05 206.183 341.05C206.183 341.05 186.242 344.63 177.033 335.421C167.824 326.212 144.979 249.966 144.979 249.966L130.649 201.348Z" fill="white"/>
<path d="M139.993 370.285C112.011 372.139 62.8081 367.535 60.9375 362.363C54.4793 344.47 59.0414 338.909 53.6582 311.51L67.1587 273.497C67.1587 273.497 64.9241 315.827 77.4088 326.957C89.8766 338.088 128.516 348.448 134.585 357.75C137.505 362.219 139.435 366.688 139.993 370.285Z" fill="#EBF3FF"/>
<path d="M107.931 352.485C107.931 352.485 135.541 346.34 139.993 348.786C144.445 351.232 155.339 360.162 156.702 363.268C158.064 366.375 146.782 360.907 143.117 359.925C140.738 359.29 134.483 361.457 131.385 362.49C118.35 366.832 110.368 364.597 110.368 364.597L107.931 352.485Z" fill="#FFB27D"/>
<path d="M89.4365 197.725C89.4365 197.725 52.3633 200.01 39.5315 217.904C21.4689 243.102 -14.3687 350.487 6.16553 364.809C29.2982 380.933 111.435 369.024 111.435 369.024C111.435 369.024 114.169 356.251 110.368 350.064C106.568 343.885 44.7623 333.897 41.9099 331.045C39.0575 328.193 77.5696 275.418 77.5696 266.861C77.5612 258.32 89.4365 197.725 89.4365 197.725Z" fill="white"/>
<path d="M141.331 356.471C141.331 356.471 147.112 363.937 149.016 364.825C150.912 365.714 152.139 365.494 152.139 365.494L148.237 358.477L141.331 356.471Z" fill="#FFB27D"/>
<path d="M139.993 348.786L156.812 356.954C156.812 356.954 156.092 358.122 154.027 358.029C151.953 357.936 146.731 356.023 146.731 356.023L139.993 348.786Z" fill="#FFB27D"/>
<path d="M149.008 376.261H282.057L322.084 276.73H189.238L149.008 376.261Z" fill="#5A27E7"/>
<path d="M283.614 372.376H107.931V376.261H282.057L283.614 372.376Z" fill="#5A27E7"/>
<path d="M248.471 326.491C249.478 322.996 247.455 320.16 243.951 320.16C240.455 320.16 236.807 322.996 235.8 326.491C234.792 329.987 236.815 332.822 240.32 332.822C243.824 332.831 247.472 329.987 248.471 326.491Z" fill="white"/>
<path d="M406.655 693H407.044C409.321 693 411.158 691.011 411.107 688.599L404.953 406.063L386.815 403.82L402.279 688.616C402.414 691.079 404.335 693 406.655 693Z" fill="#A3A3A3"/>
<path d="M108.591 693H108.202C105.925 693 104.088 691.011 104.139 688.599L110.292 406.063L128.431 403.82L112.967 688.616C112.832 691.079 110.91 693 108.591 693Z" fill="#A3A3A3"/>
<path d="M437.317 411H82.8349C79.931 411 77.5762 405.861 77.5762 399.523V388.477C77.5762 382.139 79.931 377 82.8349 377H437.317C440.221 377 442.576 382.139 442.576 388.477V399.523C442.572 405.861 440.221 411 437.317 411Z" fill="#A3A3A3"/>
<path opacity="0.1" d="M365.033 293C356.564 293 350 298.984 350 307.066C350 311.294 351.797 314.947 354.722 317.471C355.227 317.91 355.123 318.164 355.209 320.875C355.216 321.065 355.27 321.251 355.368 321.415C355.466 321.58 355.604 321.719 355.771 321.821C355.937 321.922 356.126 321.982 356.322 321.997C356.518 322.011 356.715 321.979 356.895 321.903C360.095 320.54 360.136 320.433 360.679 320.575C369.951 323.042 380 317.306 380 307.066C380 298.984 373.503 293 365.033 293ZM374.06 303.825L369.645 310.582C369.478 310.836 369.259 311.054 369.001 311.223C368.743 311.391 368.451 311.506 368.145 311.561C367.839 311.615 367.525 311.608 367.222 311.539C366.919 311.471 366.633 311.343 366.384 311.163L362.871 308.621C362.714 308.507 362.523 308.446 362.327 308.446C362.13 308.446 361.939 308.507 361.782 308.621L357.042 312.097C356.409 312.56 355.581 311.828 356.007 311.18L360.423 304.423C360.589 304.169 360.808 303.951 361.066 303.782C361.324 303.614 361.616 303.499 361.922 303.444C362.228 303.39 362.542 303.397 362.846 303.465C363.149 303.534 363.434 303.662 363.683 303.842L367.195 306.383C367.352 306.497 367.543 306.559 367.739 306.559C367.936 306.559 368.127 306.497 368.284 306.383L373.026 302.911C373.658 302.445 374.486 303.177 374.06 303.825Z" fill="white"/>
<path opacity="0.1" d="M289.467 188.556C283.367 183.135 274.294 184.11 268.694 190.134L266.501 192.49L264.308 190.134C258.719 184.11 249.635 183.135 243.534 188.556C236.543 194.777 236.176 205.943 242.432 212.686L263.974 235.877C265.365 237.374 267.625 237.374 269.017 235.877L290.558 212.686C296.826 205.943 296.459 194.777 289.467 188.556Z" fill="white"/>
<path opacity="0.1" d="M357 89C344.296 89 334 97.3125 334 107.571C334 112 335.923 116.054 339.121 119.241C337.998 123.741 334.243 127.75 334.198 127.795C334 128 333.946 128.304 334.063 128.571C334.18 128.839 334.431 129 334.719 129C340.675 129 345.141 126.161 347.351 124.411C350.289 125.509 353.55 126.143 357 126.143C369.704 126.143 380 117.83 380 107.571C380 97.3125 369.704 89 357 89ZM345.5 110.429C343.91 110.429 342.625 109.152 342.625 107.571C342.625 105.991 343.91 104.714 345.5 104.714C347.09 104.714 348.375 105.991 348.375 107.571C348.375 109.152 347.09 110.429 345.5 110.429ZM357 110.429C355.41 110.429 354.125 109.152 354.125 107.571C354.125 105.991 355.41 104.714 357 104.714C358.59 104.714 359.875 105.991 359.875 107.571C359.875 109.152 358.59 110.429 357 110.429ZM368.5 110.429C366.91 110.429 365.625 109.152 365.625 107.571C365.625 105.991 366.91 104.714 368.5 104.714C370.09 104.714 371.375 105.991 371.375 107.571C371.375 109.152 370.09 110.429 368.5 110.429Z" fill="white"/>
<path opacity="0.1" d="M370 185C351.218 185 336 200.442 336 219.5C336 238.558 351.218 254 370 254C388.782 254 404 238.558 404 219.5C404 200.442 388.782 185 370 185ZM380.968 208.371C383.394 208.371 385.355 210.36 385.355 212.823C385.355 215.285 383.394 217.274 380.968 217.274C378.541 217.274 376.581 215.285 376.581 212.823C376.581 210.36 378.541 208.371 380.968 208.371ZM359.032 208.371C361.459 208.371 363.419 210.36 363.419 212.823C363.419 215.285 361.459 217.274 359.032 217.274C356.606 217.274 354.645 215.285 354.645 212.823C354.645 210.36 356.606 208.371 359.032 208.371ZM385.739 232.048C381.831 236.806 376.101 239.532 370 239.532C363.899 239.532 358.169 236.806 354.261 232.048C352.397 229.78 355.769 226.943 357.634 229.196C360.705 232.938 365.202 235.067 370 235.067C374.798 235.067 379.295 232.924 382.366 229.196C384.203 226.943 387.59 229.78 385.739 232.048Z" fill="white"/>
<g opacity="0.1">
<path fill-rule="evenodd" clip-rule="evenodd" d="M231.513 104H273.031C275.52 104 277.544 106.024 277.544 108.513V128.821C277.544 131.31 275.52 133.334 273.031 133.334H259.72L253.205 139.849C252.815 140.239 252.182 140.239 251.791 139.849L245.276 133.334H231.513C229.024 133.334 227 131.31 227 128.821V108.513C227 106.024 229.024 104 231.513 104Z" fill="white"/>
<path d="M244.512 113.455C243.121 112.25 241.052 112.467 239.775 113.805L239.275 114.329L238.775 113.805C237.501 112.467 235.429 112.25 234.038 113.455C232.444 114.837 232.36 117.318 233.787 118.816L238.699 123.968C239.016 124.301 239.532 124.301 239.849 123.968L244.761 118.816C246.19 117.318 246.106 114.837 244.512 113.455Z" fill="#101011"/>
<circle cx="254.438" cy="118.441" r="2.88823" fill="#101011"/>
<circle cx="261.659" cy="118.441" r="2.88823" fill="#101011"/>
<circle cx="268.879" cy="118.441" r="2.88823" fill="#101011"/>
</g>
<path opacity="0.1" d="M37.5 70C26.7278 70 18 78.7278 18 89.5C18 100.272 26.7278 109 37.5 109C48.2722 109 57 100.272 57 89.5C57 78.7278 48.2722 70 37.5 70ZM50.8276 96.6474C50.5524 97.2843 49.4044 97.7482 47.305 98.0784C47.195 98.2278 47.1085 98.849 46.9669 99.3286C46.8804 99.6196 46.676 99.7925 46.33 99.7925H46.3143C45.8268 99.7925 45.3079 99.5645 44.2857 99.5645C42.9018 99.5645 42.4222 99.879 41.345 100.642C40.2048 101.452 39.1119 102.144 37.4764 102.073C35.8252 102.199 34.4413 101.192 33.6629 100.642C32.5778 99.879 32.106 99.5645 30.7222 99.5645C29.7393 99.5645 29.1181 99.8083 28.6935 99.8083C28.269 99.8083 28.1038 99.5488 28.0409 99.3365C27.8994 98.8569 27.8129 98.2278 27.7028 98.0784C26.6177 97.9133 24.1802 97.4887 24.1252 96.3958C24.1095 96.1127 24.306 95.8611 24.5891 95.8139C28.2296 95.2163 29.8651 91.4815 29.9359 91.3242C29.9359 91.3163 29.9438 91.3085 29.9516 91.3006C30.1482 90.9075 30.1875 90.5772 30.0774 90.3177C29.8101 89.6966 28.67 89.4764 28.1903 89.2798C26.948 88.7923 26.775 88.2262 26.8536 87.8409C26.9794 87.1726 27.9859 86.7558 28.5756 87.031C29.0395 87.2512 29.4562 87.3613 29.8101 87.3613C30.0696 87.3613 30.2425 87.2984 30.329 87.2512C30.219 85.372 29.9595 82.6907 30.6278 81.1889C32.397 77.2339 36.1397 76.9194 37.2405 76.9194C37.2877 76.9194 37.7202 76.9115 37.7673 76.9115C40.4958 76.9115 43.1141 78.3111 44.3958 81.181C45.0641 82.6829 44.8046 85.3562 44.6946 87.2433C44.781 87.2905 44.9226 87.3456 45.1427 87.3534C45.4808 87.3377 45.8661 87.2276 46.2986 87.0232C46.6131 86.8738 47.0534 86.8974 47.3679 87.0232C47.8633 87.204 48.1778 87.5579 48.1857 87.9589C48.1935 88.47 47.7375 88.9103 46.8333 89.2641C46.7232 89.3113 46.5895 89.3506 46.448 89.3978C45.9369 89.5629 45.1585 89.8067 44.954 90.302C44.844 90.5615 44.8911 90.8917 45.0798 91.2849C45.0877 91.2927 45.0877 91.3006 45.0956 91.3085C45.1663 91.4657 46.8018 95.2006 50.4423 95.7982C50.7569 95.8768 51.0006 96.2306 50.8276 96.6474Z" fill="white"/>
<path opacity="0.1" d="M334.725 23.5716C334.024 20.9849 331.957 18.9476 329.332 18.2563C324.575 17 305.5 17 305.5 17C305.5 17 286.425 17 281.668 18.2563C279.043 18.9477 276.976 20.9849 276.275 23.5716C275 28.2602 275 38.0424 275 38.0424C275 38.0424 275 47.8247 276.275 52.5133C276.976 55.1 279.043 57.0524 281.668 57.7437C286.425 59 305.5 59 305.5 59C305.5 59 324.575 59 329.332 57.7437C331.957 57.0524 334.024 55.1 334.725 52.5133C336 47.8247 336 38.0424 336 38.0424C336 38.0424 336 28.2602 334.725 23.5716ZM299.261 46.924V29.1609L315.204 38.0427L299.261 46.924Z" fill="white"/>
<path opacity="0.1" d="M227 34.6065C227 24.8803 219.167 17 209.5 17C199.833 17 192 24.8803 192 34.6065C192 43.3941 198.399 50.6781 206.766 52V39.696H202.32V34.6065H206.766V30.7274C206.766 26.3151 209.377 23.8779 213.375 23.8779C215.291 23.8779 217.293 24.2215 217.293 24.2215V28.5521H215.086C212.913 28.5521 212.234 29.9095 212.234 31.3017V34.6065H217.088L216.312 39.696H212.234V52C220.601 50.6781 227 43.3941 227 34.6065Z" fill="white"/>
<path opacity="0.1" d="M115.006 12.6679C107.628 12.6679 101.677 18.6203 101.677 26C101.677 33.3797 107.628 39.3321 115.006 39.3321C122.384 39.3321 128.335 33.3797 128.335 26C128.335 18.6203 122.384 12.6679 115.006 12.6679ZM115.006 34.6676C110.238 34.6676 106.34 30.7805 106.34 26C106.34 21.2195 110.226 17.3324 115.006 17.3324C119.785 17.3324 123.672 21.2195 123.672 26C123.672 30.7805 119.774 34.6676 115.006 34.6676ZM131.989 12.1225C131.989 13.8514 130.597 15.2322 128.88 15.2322C127.152 15.2322 125.771 13.8398 125.771 12.1225C125.771 10.4052 127.163 9.01283 128.88 9.01283C130.597 9.01283 131.989 10.4052 131.989 12.1225ZM140.817 15.2786C140.62 11.113 139.669 7.42318 136.618 4.38313C133.578 1.34308 129.889 0.39161 125.725 0.182751C121.433 -0.0609171 108.567 -0.0609171 104.275 0.182751C100.122 0.380007 96.4331 1.33147 93.3822 4.37153C90.3312 7.41158 89.3915 11.1014 89.1827 15.267C88.9391 19.5602 88.9391 32.4282 89.1827 36.7214C89.3799 40.887 90.3312 44.5768 93.3822 47.6169C96.4331 50.6569 100.111 51.6084 104.275 51.8172C108.567 52.0609 121.433 52.0609 125.725 51.8172C129.889 51.62 133.578 50.6685 136.618 47.6169C139.657 44.5768 140.608 40.887 140.817 36.7214C141.061 32.4282 141.061 19.5718 140.817 15.2786ZM135.272 41.3279C134.367 43.6021 132.616 45.3542 130.33 46.2709C126.908 47.6285 118.788 47.3152 115.006 47.3152C111.224 47.3152 103.092 47.6169 99.6813 46.2709C97.4076 45.3658 95.6559 43.6137 94.7394 41.3279C93.3822 37.9049 93.6954 29.7827 93.6954 26C93.6954 22.2173 93.3938 14.0835 94.7394 10.6721C95.6443 8.39786 97.396 6.64577 99.6813 5.72911C103.104 4.37153 111.224 4.68481 115.006 4.68481C118.788 4.68481 126.92 4.38313 130.33 5.72911C132.604 6.63416 134.356 8.38625 135.272 10.6721C136.629 14.0951 136.316 22.2173 136.316 26C136.316 29.7827 136.629 37.9165 135.272 41.3279Z" fill="white"/>
</svg>
